<mxfile host="app.diagrams.net" modified="2023-05-07T12:37:16.714Z" agent="Mozilla/5.0 (Windows NT 10.0; Win64; x64) AppleWebKit/537.36 (KHTML, like Gecko) Chrome/112.0.0.0 Safari/537.36" etag="sy3Hm4CPWNz6ENaS04Oi" version="21.2.9" type="github">
  <diagram name="Seite-1" id="UxKqsmDTL-n19TmxrIY1">
    <mxGraphModel dx="1434" dy="813" grid="1" gridSize="10" guides="1" tooltips="1" connect="1" arrows="1" fold="1" page="1" pageScale="1" pageWidth="827" pageHeight="1169" math="0" shadow="0">
      <root>
        <mxCell id="0" />
        <mxCell id="1" parent="0" />
        <mxCell id="UYaeu_h0ieVw9kOQCw-u-17" value="Kommunikation" style="rounded=0;whiteSpace=wrap;html=1;" parent="1" vertex="1">
          <mxGeometry x="30" y="50" width="130" height="220" as="geometry" />
        </mxCell>
        <mxCell id="E8mxEtLTKAiKPfOKdL3y-4" value="Jeder Service als eigenes Docker-Image.&lt;br&gt;Alle Kommunikation erfolgt über RabbitMQ." style="text;html=1;align=center;verticalAlign=middle;resizable=0;points=[];autosize=1;strokeColor=none;fillColor=none;" parent="1" vertex="1">
          <mxGeometry x="181.88" y="70" width="250" height="40" as="geometry" />
        </mxCell>
        <mxCell id="E8mxEtLTKAiKPfOKdL3y-7" value="" style="group" parent="1" vertex="1" connectable="0">
          <mxGeometry x="508.12" y="740" width="60" height="110" as="geometry" />
        </mxCell>
        <mxCell id="E8mxEtLTKAiKPfOKdL3y-3" value="" style="shape=cylinder3;whiteSpace=wrap;html=1;boundedLbl=1;backgroundOutline=1;size=15;" parent="E8mxEtLTKAiKPfOKdL3y-7" vertex="1">
          <mxGeometry width="60" height="80" as="geometry" />
        </mxCell>
        <mxCell id="E8mxEtLTKAiKPfOKdL3y-6" value="Nutzer" style="text;html=1;align=center;verticalAlign=middle;resizable=0;points=[];autosize=1;strokeColor=none;fillColor=none;" parent="E8mxEtLTKAiKPfOKdL3y-7" vertex="1">
          <mxGeometry y="80" width="60" height="30" as="geometry" />
        </mxCell>
        <mxCell id="E8mxEtLTKAiKPfOKdL3y-8" value="" style="group;movable=1;resizable=1;rotatable=1;deletable=1;editable=1;locked=0;connectable=1;" parent="1" vertex="1" connectable="0">
          <mxGeometry x="229.37" y="660" width="70" height="110" as="geometry" />
        </mxCell>
        <mxCell id="E8mxEtLTKAiKPfOKdL3y-2" value="" style="shape=cylinder3;whiteSpace=wrap;html=1;boundedLbl=1;backgroundOutline=1;size=15;" parent="E8mxEtLTKAiKPfOKdL3y-8" vertex="1">
          <mxGeometry x="5" width="60" height="80" as="geometry" />
        </mxCell>
        <mxCell id="E8mxEtLTKAiKPfOKdL3y-5" value="Website&lt;br&gt;" style="text;html=1;align=center;verticalAlign=middle;resizable=0;points=[];autosize=1;strokeColor=none;fillColor=none;" parent="E8mxEtLTKAiKPfOKdL3y-8" vertex="1">
          <mxGeometry y="80" width="70" height="30" as="geometry" />
        </mxCell>
        <mxCell id="E8mxEtLTKAiKPfOKdL3y-9" value="" style="group" parent="1" vertex="1" connectable="0">
          <mxGeometry x="678.75" y="450" width="60" height="110" as="geometry" />
        </mxCell>
        <mxCell id="E8mxEtLTKAiKPfOKdL3y-10" value="" style="shape=cylinder3;whiteSpace=wrap;html=1;boundedLbl=1;backgroundOutline=1;size=15;" parent="E8mxEtLTKAiKPfOKdL3y-9" vertex="1">
          <mxGeometry width="60" height="80" as="geometry" />
        </mxCell>
        <mxCell id="E8mxEtLTKAiKPfOKdL3y-11" value="Witze" style="text;html=1;align=center;verticalAlign=middle;resizable=0;points=[];autosize=1;strokeColor=none;fillColor=none;" parent="E8mxEtLTKAiKPfOKdL3y-9" vertex="1">
          <mxGeometry x="5" y="80" width="50" height="30" as="geometry" />
        </mxCell>
        <mxCell id="E8mxEtLTKAiKPfOKdL3y-12" value="" style="group" parent="1" vertex="1" connectable="0">
          <mxGeometry x="618.75" y="325" width="70" height="110" as="geometry" />
        </mxCell>
        <mxCell id="E8mxEtLTKAiKPfOKdL3y-13" value="" style="shape=cylinder3;whiteSpace=wrap;html=1;boundedLbl=1;backgroundOutline=1;size=15;" parent="E8mxEtLTKAiKPfOKdL3y-12" vertex="1">
          <mxGeometry x="5" width="60" height="80" as="geometry" />
        </mxCell>
        <mxCell id="E8mxEtLTKAiKPfOKdL3y-14" value="Umfragen" style="text;html=1;align=center;verticalAlign=middle;resizable=0;points=[];autosize=1;strokeColor=none;fillColor=none;" parent="E8mxEtLTKAiKPfOKdL3y-12" vertex="1">
          <mxGeometry x="-5" y="80" width="80" height="30" as="geometry" />
        </mxCell>
        <mxCell id="E8mxEtLTKAiKPfOKdL3y-15" value="" style="group" parent="1" vertex="1" connectable="0">
          <mxGeometry x="350" y="510" width="112.5" height="110" as="geometry" />
        </mxCell>
        <mxCell id="E8mxEtLTKAiKPfOKdL3y-16" value="" style="shape=cylinder3;whiteSpace=wrap;html=1;boundedLbl=1;backgroundOutline=1;size=15;" parent="E8mxEtLTKAiKPfOKdL3y-15" vertex="1">
          <mxGeometry x="26.25" width="60" height="80" as="geometry" />
        </mxCell>
        <mxCell id="E8mxEtLTKAiKPfOKdL3y-18" value="" style="endArrow=classic;html=1;rounded=0;" parent="1" source="E8mxEtLTKAiKPfOKdL3y-2" target="E8mxEtLTKAiKPfOKdL3y-16" edge="1">
          <mxGeometry width="50" height="50" relative="1" as="geometry">
            <mxPoint x="281" y="790" as="sourcePoint" />
            <mxPoint x="391" y="635" as="targetPoint" />
          </mxGeometry>
        </mxCell>
        <mxCell id="E8mxEtLTKAiKPfOKdL3y-20" value="" style="group" parent="1" vertex="1" connectable="0">
          <mxGeometry x="582.5" y="670" width="87.5" height="110" as="geometry" />
        </mxCell>
        <mxCell id="E8mxEtLTKAiKPfOKdL3y-21" value="" style="shape=cylinder3;whiteSpace=wrap;html=1;boundedLbl=1;backgroundOutline=1;size=15;" parent="E8mxEtLTKAiKPfOKdL3y-20" vertex="1">
          <mxGeometry x="13.75" width="60" height="80" as="geometry" />
        </mxCell>
        <mxCell id="E8mxEtLTKAiKPfOKdL3y-22" value="Text-Reaktion" style="text;html=1;align=center;verticalAlign=middle;resizable=0;points=[];autosize=1;strokeColor=none;fillColor=none;" parent="E8mxEtLTKAiKPfOKdL3y-20" vertex="1">
          <mxGeometry x="-6.25" y="80" width="100" height="30" as="geometry" />
        </mxCell>
        <mxCell id="E8mxEtLTKAiKPfOKdL3y-23" value="Zur Identifikation und Autorisierung" style="shape=note;whiteSpace=wrap;html=1;backgroundOutline=1;darkOpacity=0.05;size=23;" parent="1" vertex="1">
          <mxGeometry x="618.75" y="820" width="80" height="100" as="geometry" />
        </mxCell>
        <mxCell id="E8mxEtLTKAiKPfOKdL3y-24" value="" style="endArrow=none;dashed=1;html=1;rounded=0;" parent="1" source="E8mxEtLTKAiKPfOKdL3y-3" target="E8mxEtLTKAiKPfOKdL3y-23" edge="1">
          <mxGeometry width="50" height="50" relative="1" as="geometry">
            <mxPoint x="1050.63" y="910" as="sourcePoint" />
            <mxPoint x="1100.63" y="860" as="targetPoint" />
          </mxGeometry>
        </mxCell>
        <mxCell id="E8mxEtLTKAiKPfOKdL3y-35" value="Verwalten Witzen (Einfügen, Lesen, Löschen)" style="shape=note;whiteSpace=wrap;html=1;backgroundOutline=1;darkOpacity=0.05;size=16;" parent="1" vertex="1">
          <mxGeometry x="805" y="420" width="80" height="100" as="geometry" />
        </mxCell>
        <mxCell id="E8mxEtLTKAiKPfOKdL3y-36" value="Interaktive Umfragen (mit zeitlicher Begrenzung)" style="shape=note;whiteSpace=wrap;html=1;backgroundOutline=1;darkOpacity=0.05;size=19;" parent="1" vertex="1">
          <mxGeometry x="747" y="280" width="80" height="100" as="geometry" />
        </mxCell>
        <mxCell id="E8mxEtLTKAiKPfOKdL3y-37" value="Definition von Befehlen/Makros welche durch Texteingaben ausgelöst werden" style="shape=note;whiteSpace=wrap;html=1;backgroundOutline=1;darkOpacity=0.05;size=23;" parent="1" vertex="1">
          <mxGeometry x="698.75" y="700" width="100" height="120" as="geometry" />
        </mxCell>
        <mxCell id="E8mxEtLTKAiKPfOKdL3y-38" value="" style="group" parent="1" vertex="1" connectable="0">
          <mxGeometry x="640" y="570" width="98.75" height="110" as="geometry" />
        </mxCell>
        <mxCell id="E8mxEtLTKAiKPfOKdL3y-39" value="" style="shape=cylinder3;whiteSpace=wrap;html=1;boundedLbl=1;backgroundOutline=1;size=15;" parent="E8mxEtLTKAiKPfOKdL3y-38" vertex="1">
          <mxGeometry x="19.38" width="60" height="80" as="geometry" />
        </mxCell>
        <mxCell id="E8mxEtLTKAiKPfOKdL3y-40" value="Event-Reaktion" style="text;html=1;align=center;verticalAlign=middle;resizable=0;points=[];autosize=1;strokeColor=none;fillColor=none;" parent="E8mxEtLTKAiKPfOKdL3y-38" vertex="1">
          <mxGeometry x="-5.62" y="80" width="110" height="30" as="geometry" />
        </mxCell>
        <mxCell id="E8mxEtLTKAiKPfOKdL3y-41" value="Definition von Befehlen/Makros welche durch Systemspezifische Trigger ausgelöst werden (Bspw. Nutzer geht online)" style="shape=note;whiteSpace=wrap;html=1;backgroundOutline=1;darkOpacity=0.05;size=23;" parent="1" vertex="1">
          <mxGeometry x="770" y="560" width="140" height="130" as="geometry" />
        </mxCell>
        <mxCell id="E8mxEtLTKAiKPfOKdL3y-42" value="" style="endArrow=none;dashed=1;html=1;rounded=0;" parent="1" source="E8mxEtLTKAiKPfOKdL3y-10" target="E8mxEtLTKAiKPfOKdL3y-35" edge="1">
          <mxGeometry width="50" height="50" relative="1" as="geometry">
            <mxPoint x="484" y="341" as="sourcePoint" />
            <mxPoint x="500" y="320" as="targetPoint" />
          </mxGeometry>
        </mxCell>
        <mxCell id="E8mxEtLTKAiKPfOKdL3y-43" value="" style="group" parent="1" vertex="1" connectable="0">
          <mxGeometry x="191.25" y="490" width="97.5" height="110" as="geometry" />
        </mxCell>
        <mxCell id="E8mxEtLTKAiKPfOKdL3y-44" value="" style="shape=cylinder3;whiteSpace=wrap;html=1;boundedLbl=1;backgroundOutline=1;size=15;" parent="E8mxEtLTKAiKPfOKdL3y-43" vertex="1">
          <mxGeometry x="18.75" width="60" height="80" as="geometry" />
        </mxCell>
        <mxCell id="E8mxEtLTKAiKPfOKdL3y-45" value="Discord-Gateway" style="text;html=1;align=center;verticalAlign=middle;resizable=0;points=[];autosize=1;strokeColor=none;fillColor=none;" parent="E8mxEtLTKAiKPfOKdL3y-43" vertex="1">
          <mxGeometry x="-11.25" y="80" width="120" height="30" as="geometry" />
        </mxCell>
        <mxCell id="E8mxEtLTKAiKPfOKdL3y-46" value="" style="group" parent="1" vertex="1" connectable="0">
          <mxGeometry x="260" y="385" width="92.5" height="110" as="geometry" />
        </mxCell>
        <mxCell id="E8mxEtLTKAiKPfOKdL3y-47" value="" style="shape=cylinder3;whiteSpace=wrap;html=1;boundedLbl=1;backgroundOutline=1;size=15;" parent="E8mxEtLTKAiKPfOKdL3y-46" vertex="1">
          <mxGeometry x="16.25" width="60" height="80" as="geometry" />
        </mxCell>
        <mxCell id="E8mxEtLTKAiKPfOKdL3y-48" value="Twitch-Gateway" style="text;html=1;align=center;verticalAlign=middle;resizable=0;points=[];autosize=1;strokeColor=none;fillColor=none;" parent="E8mxEtLTKAiKPfOKdL3y-46" vertex="1">
          <mxGeometry x="-8.75" y="80" width="110" height="30" as="geometry" />
        </mxCell>
        <mxCell id="E8mxEtLTKAiKPfOKdL3y-49" value="Interaktion mit Twitch-API" style="shape=note;whiteSpace=wrap;html=1;backgroundOutline=1;darkOpacity=0.05;size=23;" parent="1" vertex="1">
          <mxGeometry x="111.25" y="330" width="80" height="100" as="geometry" />
        </mxCell>
        <mxCell id="E8mxEtLTKAiKPfOKdL3y-50" value="" style="endArrow=none;dashed=1;html=1;rounded=0;" parent="1" source="E8mxEtLTKAiKPfOKdL3y-47" target="E8mxEtLTKAiKPfOKdL3y-49" edge="1">
          <mxGeometry width="50" height="50" relative="1" as="geometry">
            <mxPoint x="490" y="431" as="sourcePoint" />
            <mxPoint x="506" y="410" as="targetPoint" />
          </mxGeometry>
        </mxCell>
        <mxCell id="E8mxEtLTKAiKPfOKdL3y-51" value="Interaktion mit Discord-API" style="shape=note;whiteSpace=wrap;html=1;backgroundOutline=1;darkOpacity=0.05;size=23;" parent="1" vertex="1">
          <mxGeometry x="80" y="485" width="80" height="100" as="geometry" />
        </mxCell>
        <mxCell id="E8mxEtLTKAiKPfOKdL3y-52" value="" style="endArrow=none;dashed=1;html=1;rounded=0;" parent="1" source="E8mxEtLTKAiKPfOKdL3y-44" target="E8mxEtLTKAiKPfOKdL3y-51" edge="1">
          <mxGeometry width="50" height="50" relative="1" as="geometry">
            <mxPoint x="407.88" y="460" as="sourcePoint" />
            <mxPoint x="407.88" y="410" as="targetPoint" />
          </mxGeometry>
        </mxCell>
        <mxCell id="E8mxEtLTKAiKPfOKdL3y-55" value="" style="group" parent="1" vertex="1" connectable="0">
          <mxGeometry x="540" y="250" width="65" height="110" as="geometry" />
        </mxCell>
        <mxCell id="E8mxEtLTKAiKPfOKdL3y-56" value="" style="shape=cylinder3;whiteSpace=wrap;html=1;boundedLbl=1;backgroundOutline=1;size=15;" parent="E8mxEtLTKAiKPfOKdL3y-55" vertex="1">
          <mxGeometry x="2.5" width="60" height="80" as="geometry" />
        </mxCell>
        <mxCell id="E8mxEtLTKAiKPfOKdL3y-57" value="Ranking" style="text;html=1;align=center;verticalAlign=middle;resizable=0;points=[];autosize=1;strokeColor=none;fillColor=none;" parent="E8mxEtLTKAiKPfOKdL3y-55" vertex="1">
          <mxGeometry x="-2.5" y="80" width="70" height="30" as="geometry" />
        </mxCell>
        <mxCell id="E8mxEtLTKAiKPfOKdL3y-58" value="Gamification (Ranking, LvL, Exp)" style="shape=note;whiteSpace=wrap;html=1;backgroundOutline=1;darkOpacity=0.05;size=23;" parent="1" vertex="1">
          <mxGeometry x="649.38" y="130" width="80" height="100" as="geometry" />
        </mxCell>
        <mxCell id="E8mxEtLTKAiKPfOKdL3y-59" value="" style="endArrow=none;dashed=1;html=1;rounded=0;" parent="1" source="E8mxEtLTKAiKPfOKdL3y-56" target="E8mxEtLTKAiKPfOKdL3y-58" edge="1">
          <mxGeometry width="50" height="50" relative="1" as="geometry">
            <mxPoint x="559" y="31" as="sourcePoint" />
            <mxPoint x="575" y="10" as="targetPoint" />
          </mxGeometry>
        </mxCell>
        <mxCell id="E8mxEtLTKAiKPfOKdL3y-60" value="" style="endArrow=none;dashed=1;html=1;rounded=0;" parent="1" source="E8mxEtLTKAiKPfOKdL3y-13" target="E8mxEtLTKAiKPfOKdL3y-36" edge="1">
          <mxGeometry width="50" height="50" relative="1" as="geometry">
            <mxPoint x="778" y="98" as="sourcePoint" />
            <mxPoint x="855" y="93" as="targetPoint" />
          </mxGeometry>
        </mxCell>
        <mxCell id="E8mxEtLTKAiKPfOKdL3y-69" style="rounded=0;orthogonalLoop=1;jettySize=auto;html=1;" parent="1" source="E8mxEtLTKAiKPfOKdL3y-16" target="E8mxEtLTKAiKPfOKdL3y-21" edge="1">
          <mxGeometry relative="1" as="geometry" />
        </mxCell>
        <mxCell id="E8mxEtLTKAiKPfOKdL3y-70" style="rounded=0;orthogonalLoop=1;jettySize=auto;html=1;" parent="1" source="E8mxEtLTKAiKPfOKdL3y-16" target="E8mxEtLTKAiKPfOKdL3y-39" edge="1">
          <mxGeometry relative="1" as="geometry" />
        </mxCell>
        <mxCell id="E8mxEtLTKAiKPfOKdL3y-71" value="" style="endArrow=none;dashed=1;html=1;rounded=0;" parent="1" source="E8mxEtLTKAiKPfOKdL3y-21" target="E8mxEtLTKAiKPfOKdL3y-37" edge="1">
          <mxGeometry width="50" height="50" relative="1" as="geometry">
            <mxPoint x="648" y="494" as="sourcePoint" />
            <mxPoint x="608" y="480" as="targetPoint" />
          </mxGeometry>
        </mxCell>
        <mxCell id="E8mxEtLTKAiKPfOKdL3y-72" value="" style="endArrow=none;dashed=1;html=1;rounded=0;" parent="1" source="E8mxEtLTKAiKPfOKdL3y-41" target="E8mxEtLTKAiKPfOKdL3y-39" edge="1">
          <mxGeometry width="50" height="50" relative="1" as="geometry">
            <mxPoint x="303" y="498" as="sourcePoint" />
            <mxPoint x="230" y="493" as="targetPoint" />
          </mxGeometry>
        </mxCell>
        <mxCell id="UYaeu_h0ieVw9kOQCw-u-1" value="Konfiguration" style="shape=note;whiteSpace=wrap;html=1;backgroundOutline=1;darkOpacity=0.05;size=23;" parent="1" vertex="1">
          <mxGeometry x="100" y="660" width="81.88" height="100" as="geometry" />
        </mxCell>
        <mxCell id="UYaeu_h0ieVw9kOQCw-u-2" value="" style="endArrow=none;dashed=1;html=1;rounded=0;" parent="1" source="UYaeu_h0ieVw9kOQCw-u-1" target="E8mxEtLTKAiKPfOKdL3y-2" edge="1">
          <mxGeometry width="50" height="50" relative="1" as="geometry">
            <mxPoint x="354.88" y="432" as="sourcePoint" />
            <mxPoint x="281.88" y="437" as="targetPoint" />
          </mxGeometry>
        </mxCell>
        <mxCell id="UYaeu_h0ieVw9kOQCw-u-6" value="" style="endArrow=classic;html=1;rounded=0;" parent="1" source="E8mxEtLTKAiKPfOKdL3y-44" target="E8mxEtLTKAiKPfOKdL3y-16" edge="1">
          <mxGeometry width="50" height="50" relative="1" as="geometry">
            <mxPoint x="304" y="688" as="sourcePoint" />
            <mxPoint x="432" y="592" as="targetPoint" />
          </mxGeometry>
        </mxCell>
        <mxCell id="UYaeu_h0ieVw9kOQCw-u-7" value="" style="endArrow=classic;html=1;rounded=0;" parent="1" source="E8mxEtLTKAiKPfOKdL3y-47" target="E8mxEtLTKAiKPfOKdL3y-16" edge="1">
          <mxGeometry width="50" height="50" relative="1" as="geometry">
            <mxPoint x="280" y="544" as="sourcePoint" />
            <mxPoint x="432" y="566" as="targetPoint" />
          </mxGeometry>
        </mxCell>
        <mxCell id="UYaeu_h0ieVw9kOQCw-u-8" value="" style="endArrow=classic;html=1;rounded=0;" parent="1" source="E8mxEtLTKAiKPfOKdL3y-16" target="E8mxEtLTKAiKPfOKdL3y-56" edge="1">
          <mxGeometry width="50" height="50" relative="1" as="geometry">
            <mxPoint x="480" y="440" as="sourcePoint" />
            <mxPoint x="432" y="542" as="targetPoint" />
          </mxGeometry>
        </mxCell>
        <mxCell id="UYaeu_h0ieVw9kOQCw-u-9" value="" style="endArrow=classic;html=1;rounded=0;" parent="1" source="E8mxEtLTKAiKPfOKdL3y-16" target="E8mxEtLTKAiKPfOKdL3y-13" edge="1">
          <mxGeometry width="50" height="50" relative="1" as="geometry">
            <mxPoint x="480" y="530" as="sourcePoint" />
            <mxPoint x="565" y="340" as="targetPoint" />
          </mxGeometry>
        </mxCell>
        <mxCell id="UYaeu_h0ieVw9kOQCw-u-10" value="" style="endArrow=classic;html=1;rounded=0;" parent="1" source="E8mxEtLTKAiKPfOKdL3y-16" target="E8mxEtLTKAiKPfOKdL3y-10" edge="1">
          <mxGeometry width="50" height="50" relative="1" as="geometry">
            <mxPoint x="492" y="541" as="sourcePoint" />
            <mxPoint x="634" y="404" as="targetPoint" />
          </mxGeometry>
        </mxCell>
        <mxCell id="UYaeu_h0ieVw9kOQCw-u-12" style="rounded=0;orthogonalLoop=1;jettySize=auto;html=1;" parent="1" source="E8mxEtLTKAiKPfOKdL3y-16" target="E8mxEtLTKAiKPfOKdL3y-3" edge="1">
          <mxGeometry relative="1" as="geometry">
            <mxPoint x="492" y="596" as="sourcePoint" />
            <mxPoint x="606" y="694" as="targetPoint" />
          </mxGeometry>
        </mxCell>
        <mxCell id="E8mxEtLTKAiKPfOKdL3y-17" value="API-Gateway" style="text;html=1;align=center;verticalAlign=middle;resizable=0;points=[];autosize=1;strokeColor=none;fillColor=none;" parent="1" vertex="1">
          <mxGeometry x="361.25" y="600" width="90" height="30" as="geometry" />
        </mxCell>
        <mxCell id="UYaeu_h0ieVw9kOQCw-u-13" value="Service" style="shape=cylinder3;whiteSpace=wrap;html=1;boundedLbl=1;backgroundOutline=1;size=15;" parent="1" vertex="1">
          <mxGeometry x="65" y="60" width="60" height="80" as="geometry" />
        </mxCell>
        <mxCell id="UYaeu_h0ieVw9kOQCw-u-16" value="Legende" style="rounded=0;whiteSpace=wrap;html=1;" parent="1" vertex="1">
          <mxGeometry x="30" y="20" width="130" height="30" as="geometry" />
        </mxCell>
        <mxCell id="UYaeu_h0ieVw9kOQCw-u-18" value="" style="endArrow=classic;html=1;rounded=0;" parent="1" edge="1">
          <mxGeometry width="50" height="50" relative="1" as="geometry">
            <mxPoint x="50" y="170" as="sourcePoint" />
            <mxPoint x="140" y="170" as="targetPoint" />
            <Array as="points">
              <mxPoint x="100" y="170" />
            </Array>
          </mxGeometry>
        </mxCell>
        <mxCell id="UYaeu_h0ieVw9kOQCw-u-19" value="Notiz" style="shape=note;whiteSpace=wrap;html=1;backgroundOutline=1;darkOpacity=0.05;size=23;" parent="1" vertex="1">
          <mxGeometry x="69.37" y="190" width="55.63" height="60" as="geometry" />
        </mxCell>
      </root>
    </mxGraphModel>
  </diagram>
</mxfile>
